<svg id="Lager_1" data-name="Lager 1" xmlns="http://www.w3.org/2000/svg" viewBox="0 0 2085.1 1104.98"><defs><style>.cls-1{fill:#e7ecef;}.cls-2{fill:#d8dadb;}.cls-3{fill:#e6e6e6;}.cls-4{fill:#ccc;}.cls-5{fill:#de356a;}.cls-6,.cls-7{fill:#540e33;}.cls-6{opacity:0.76;}.cls-15,.cls-6{isolation:isolate;}.cls-8{fill:#2f2e41;}.cls-9{fill:#a0616a;}.cls-10{fill:#575a89;}.cls-11{fill:#3f3d56;}.cls-12{fill:#fff;}.cls-13{fill:#b3b3b3;}.cls-14{fill:#d0cde1;}.cls-15{opacity:0.2;}</style></defs><rect class="cls-1" width="2084.78" height="1104.98"/><path class="cls-2" d="M2084.92,17.06c0-.23,0-.41,0-.58a4,4,0,0,1-.16-1.25A4.14,4.14,0,0,1,2085,14c0-.17.06-.3.06-.31s0,0,0,0l.06-.18a5,5,0,0,1-.09-1.54,492.58,492.58,0,0,0-272,16.35c-12.74,4.54-25.45,9.67-37.77,15.26s-24.4,11.68-36.14,18.23A492.33,492.33,0,0,0,1565.17,225c-7.26,11.27-14.12,23-20.42,34.78s-12.25,24.17-17.57,36.52-10.26,25.28-14.56,38.13-8.17,26.28-11.4,39.57a671.21,671.21,0,0,0-504,458.68,383,383,0,0,0-44.33-8,387.7,387.7,0,0,0-46-2.73,382.43,382.43,0,0,0-369.43,283H2084.78V19.73h.13a6.09,6.09,0,0,1,.1-1.65A4.31,4.31,0,0,1,2084.92,17.06Z"/><rect class="cls-3" x="1657.57" y="652.4" width="337.12" height="9.89"/><rect class="cls-3" x="1685.44" y="569.69" width="85.4" height="85.4"/><rect class="cls-4" x="1702.52" y="586.77" width="51.24" height="51.24"/><rect class="cls-3" x="1876.92" y="569.69" width="21.58" height="85.4"/><rect class="cls-4" x="1876.92" y="583.18" width="21.58" height="9.89"/><rect class="cls-4" x="1876.92" y="626.33" width="21.58" height="9.89"/><rect class="cls-3" x="1843.66" y="569.69" width="21.58" height="85.4"/><rect class="cls-4" x="1843.66" y="583.18" width="21.58" height="9.89"/><rect class="cls-4" x="1843.66" y="626.33" width="21.58" height="9.89"/><rect class="cls-3" x="1915.59" y="569.68" width="21.58" height="85.4" transform="translate(-71.6 919.01) rotate(-26.36)"/><rect class="cls-4" x="1904.81" y="585.69" width="21.58" height="9.89" transform="translate(-63.07 911.96) rotate(-26.36)"/><rect class="cls-4" x="1923.95" y="624.37" width="21.58" height="9.89" transform="translate(-78.25 924.48) rotate(-26.36)"/><path class="cls-3" d="M1717.35,604l10.87,18.82,10.86,18.82h-43.46l10.86-18.82Z"/><path class="cls-3" d="M1736.23,607.57l10.86,18.82L1758,645.21H1714.5l10.86-18.82Z"/><circle class="cls-3" cx="1743.87" cy="595.76" r="6.29"/><rect class="cls-3" x="1657.57" y="516.65" width="337.12" height="9.89"/><rect class="cls-3" x="1881.42" y="433.94" width="85.4" height="85.4"/><rect class="cls-4" x="1898.5" y="451.02" width="51.24" height="51.24"/><rect class="cls-3" x="1753.76" y="433.94" width="21.58" height="85.4"/><rect class="cls-4" x="1753.76" y="447.43" width="21.58" height="9.89"/><rect class="cls-4" x="1753.76" y="490.58" width="21.58" height="9.89"/><rect class="cls-3" x="1787.02" y="433.94" width="21.58" height="85.4"/><rect class="cls-4" x="1787.02" y="447.43" width="21.58" height="9.89"/><rect class="cls-4" x="1787.02" y="490.58" width="21.58" height="9.89"/><rect class="cls-3" x="1683.2" y="465.86" width="85.4" height="21.58" transform="translate(532.49 1811.46) rotate(-63.64)"/><rect class="cls-4" x="1731.72" y="444.1" width="9.89" height="21.58" transform="translate(557.97 1809) rotate(-63.64)"/><rect class="cls-4" x="1712.57" y="482.78" width="9.89" height="21.58" transform="translate(512.68 1813.35) rotate(-63.64)"/><path class="cls-3" d="M1934.91,468.23,1924,487l-10.86,18.82h43.46L1945.77,487Z"/><path class="cls-3" d="M1916,471.82l-10.87,18.82-10.86,18.82h43.46l-10.87-18.82Z"/><circle class="cls-3" cx="1908.39" cy="460.02" r="6.29"/><rect class="cls-3" x="1657.57" y="788.15" width="337.12" height="9.89"/><rect class="cls-3" x="1881.42" y="705.44" width="85.4" height="85.4"/><rect class="cls-4" x="1898.5" y="722.52" width="51.24" height="51.24"/><rect class="cls-3" x="1753.76" y="705.44" width="21.58" height="85.4"/><rect class="cls-4" x="1753.76" y="718.92" width="21.58" height="9.89"/><rect class="cls-4" x="1753.76" y="762.08" width="21.58" height="9.89"/><rect class="cls-3" x="1787.02" y="705.44" width="21.58" height="85.4"/><rect class="cls-4" x="1787.02" y="718.92" width="21.58" height="9.89"/><rect class="cls-4" x="1787.02" y="762.08" width="21.58" height="9.89"/><rect class="cls-3" x="1683.2" y="737.36" width="85.4" height="21.58" transform="translate(289.23 1962.41) rotate(-63.64)"/><rect class="cls-4" x="1731.72" y="715.6" width="9.89" height="21.58" transform="translate(314.71 1959.95) rotate(-63.64)"/><rect class="cls-4" x="1712.57" y="754.27" width="9.89" height="21.58" transform="translate(269.41 1964.3) rotate(-63.64)"/><path class="cls-3" d="M1934.91,739.72,1924,758.54l-10.86,18.82h43.46l-10.87-18.82Z"/><path class="cls-3" d="M1916,743.32l-10.87,18.82L1894.3,781h43.46l-10.86-18.82Z"/><circle class="cls-3" cx="1908.39" cy="731.51" r="6.29"/><ellipse class="cls-3" cx="1589.79" cy="996.3" rx="397.13" ry="28.2"/><path class="cls-5" d="M1900.05,1012.1c-64.76-11.53-135.57-9.61-209.85,0,33.86-28.58,63.08-57.17,29.22-85.75,66,13.63,75.29,12.25,148.75,0C1851.13,954.93,1883,983.52,1900.05,1012.1Z"/><path class="cls-6" d="M1900.05,1012.1c-64.76-11.53-135.57-9.61-209.85,0,33.86-28.58,63.08-57.17,29.22-85.75,66,13.63,75.29,12.25,148.75,0C1851.13,954.93,1883,983.52,1900.05,1012.1Z"/><path class="cls-7" d="M1884.25,999.9a468.12,468.12,0,0,0-55.54-5.74c-20.23-.94-41.25-.74-62.78.4-19.48,1-39.55,2.87-59.93,5.35,28.75-22.82,53.58-45.63,24.82-68.45,56.1,10.88,64,9.78,126.36,0C1842.7,954.28,1869.77,977.09,1884.25,999.9Z"/><circle class="cls-8" cx="1863.3" cy="933.84" r="29.31"/><path class="cls-9" d="M1730.25,899.84l20.31,3.39,10.15,29.33-29.33,18.05-33.85-50.77Z"/><circle class="cls-9" cx="1787.79" cy="897.58" r="47.38"/><path class="cls-8" d="M1526.05,725S1411,737.38,1390.66,735.12s-29.33-4.51-29.33-4.51-13.54,18-6.77,25.95a48.85,48.85,0,0,0,13.54,11.28s12.41-3.38,21.43,0,100.41,18,116.21,4.51S1526.05,725,1526.05,725Z"/><path class="cls-8" d="M1533.94,976.56s-75.59-21.44-89.12-116.21v-9s-15,26.24-20.31,31.59c-6.21,6.21-28.21,62.06-27.08,67.7s0,7.9,0,7.9l-32.72-3.39V945s17.49-52.46,18.62-64.87,43.43-98.72,43.43-98.72,15.8-32.72,42.88,0S1499,836.66,1499,836.66l35,67.69Z"/><path class="cls-8" d="M1364.71,727.22l-36.1-12.41s-33.84-24.82-25.95,0,44,79,54.16,73.34,22.36-19.64,19.64-21.67S1355.69,749.79,1364.71,727.22Z"/><path class="cls-8" d="M1369.07,938.31l-29.14,14.23s-35.24,5.42-15.59,15.59,73.88,21,76.59,11.52,1.63-25.23-1.22-24.82S1377.21,957.29,1369.07,938.31Z"/><path class="cls-10" d="M1519.27,902.1s-14.66,63.18,10.16,76.72,198.56,15.79,212.1-9S1748.3,945,1748.3,945l-36.1-40.62,29.33-2.25s0-9-10.15-10.16-41.75-12.41-68.82-4.51-42.88-15.79-42.88-15.79Z"/><path class="cls-11" d="M1500.1,704.66l-19.18,104.92,132-15.8L1636.61,699Z"/><path class="cls-12" d="M1504.05,708.61l-15.8,93.64,120.16-14.1L1631.53,703Z"/><path class="cls-13" d="M1485.43,810.71l-4.51-1.13-2.26,4.52,36.1,100.41,3.4-1.3,1.11-6.6Z"/><path class="cls-14" d="M1480.92,808.46,1517,913.38l136.51-20.31-40.61-99.28Z"/><path class="cls-11" d="M1499,805.07v5.64l100.41-11.28-1.13-5.64Z"/><path class="cls-11" d="M1501.23,816.35l15.79,44,102.67-12.41-18-41.74Z"/><path class="cls-9" d="M1629.84,878.4l-3.38-9s-26-45.13-39.49-36.1,28.2,53,28.2,53h13.54Z"/><path class="cls-9" d="M1544.1,885.17l-3.39-13.54s-9-41.74,6.77-39.48,20.31,41.74,20.31,41.74l-1.13,9Z"/><path class="cls-10" d="M1571.17,879.53s-29.33-4.51-30.46,2.26-6.77,108.31,21.44,111.69,168.1,18,153.43-16.92-37.23-30.46-37.23-30.46l-95.9,10.15Z"/><path class="cls-10" d="M1659.74,892.51l-29.9-20.87-19.74,15.23,24.82,27.07Z"/><path class="cls-15" d="M1579.64,912.82l4.51,42.87,77.85-4.52-67.7-1.12Z"/><circle class="cls-8" cx="1811.18" cy="906.19" r="56.41"/><path class="cls-7" d="M1521,741.33l70-2.44,6.77-25.77-72.21,2.18Z"/><path class="cls-3" d="M1502.92,756l106-3.38,1.13-4.52-106,3.74Z"/><path class="cls-3" d="M1500.66,767.28l106-3.39,1.13-4.51-106,3.73Z"/><path class="cls-3" d="M1499.53,776.3l106.06-3.38,1.12-4.52-106,3.74Z"/></svg>