<svg id="Lager_1" data-name="Lager 1" xmlns="http://www.w3.org/2000/svg" viewBox="0 0 1608.47 1105"><defs><style>.cls-1{fill:#e7ecef;}.cls-2{fill:#d8dadb;}.cls-3{fill:#e6e6e6;}.cls-4{fill:#ccc;}.cls-5{fill:#de356a;}.cls-6,.cls-7{fill:#540e33;}.cls-6{opacity:0.76;}.cls-15,.cls-6{isolation:isolate;}.cls-8{fill:#2f2e41;}.cls-9{fill:#a0616a;}.cls-10{fill:#575a89;}.cls-11{fill:#3f3d56;}.cls-12{fill:#fff;}.cls-13{fill:#b3b3b3;}.cls-14{fill:#d0cde1;}.cls-15{opacity:0.2;}</style></defs><rect class="cls-1" width="1577.67" height="1105"/><path class="cls-2" d="M1577.67,1105H30.38A380.48,380.48,0,0,1,81.71,992a383.25,383.25,0,0,1,408.38-159.3A671.2,671.2,0,0,1,994.11,374c3.22-13.29,7.06-26.61,11.4-39.58s9.2-25.67,14.56-38.12,11.23-24.64,17.56-36.53,13.17-23.5,20.43-34.77A492.3,492.3,0,0,1,1232,61.75c11.75-6.55,23.9-12.68,36.14-18.23s25-10.72,37.77-15.26a492.72,492.72,0,0,1,302.56-8.51h-30.8Z" transform="translate(0 0)"/><rect class="cls-3" x="1151.45" y="652.42" width="337.12" height="9.89"/><rect class="cls-3" x="1179.32" y="569.71" width="85.4" height="85.4"/><rect class="cls-4" x="1196.4" y="586.79" width="51.24" height="51.24"/><rect class="cls-3" x="1370.81" y="569.71" width="21.58" height="85.4"/><rect class="cls-4" x="1370.81" y="583.2" width="21.58" height="9.89"/><rect class="cls-4" x="1370.81" y="626.35" width="21.58" height="9.89"/><rect class="cls-3" x="1337.54" y="569.71" width="21.58" height="85.4"/><rect class="cls-4" x="1337.54" y="583.2" width="21.58" height="9.89"/><rect class="cls-4" x="1337.54" y="626.35" width="21.58" height="9.89"/><rect class="cls-3" x="1409.47" y="569.7" width="21.58" height="85.4" transform="translate(-124.24 694.29) rotate(-26.36)"/><rect class="cls-4" x="1398.69" y="585.71" width="21.58" height="9.89" transform="translate(-115.7 687.24) rotate(-26.36)"/><rect class="cls-4" x="1417.84" y="624.38" width="21.58" height="9.89" transform="translate(-130.88 699.76) rotate(-26.36)"/><path class="cls-3" d="M1211.23,604l10.87,18.82L1233,641.63h-43.46l10.86-18.82Z" transform="translate(0 0)"/><path class="cls-3" d="M1230.11,607.59,1241,626.41l10.87,18.82h-43.47l10.87-18.82Z" transform="translate(0 0)"/><circle class="cls-3" cx="1237.76" cy="595.78" r="6.29"/><rect class="cls-3" x="1151.45" y="516.67" width="337.12" height="9.89"/><rect class="cls-3" x="1375.3" y="433.96" width="85.4" height="85.4"/><rect class="cls-4" x="1392.38" y="451.04" width="51.24" height="51.24"/><rect class="cls-3" x="1247.64" y="433.96" width="21.58" height="85.4"/><rect class="cls-4" x="1247.64" y="447.45" width="21.58" height="9.89"/><rect class="cls-4" x="1247.64" y="490.6" width="21.58" height="9.89"/><rect class="cls-3" x="1280.91" y="433.96" width="21.58" height="85.4"/><rect class="cls-4" x="1280.91" y="447.45" width="21.58" height="9.89"/><rect class="cls-4" x="1280.91" y="490.6" width="21.58" height="9.89"/><rect class="cls-3" x="1177.09" y="465.88" width="85.4" height="21.58" transform="translate(251.08 1357.98) rotate(-63.64)"/><rect class="cls-4" x="1225.6" y="444.12" width="9.89" height="21.58" transform="translate(276.56 1355.52) rotate(-63.64)"/><rect class="cls-4" x="1206.46" y="482.8" width="9.89" height="21.58" transform="translate(231.27 1359.87) rotate(-63.64)"/><path class="cls-3" d="M1428.79,468.24l-10.86,18.82-10.87,18.82h43.46l-10.86-18.82Z" transform="translate(0 0)"/><path class="cls-3" d="M1409.91,471.84l-10.86,18.82-10.87,18.82h43.47l-10.87-18.82Z" transform="translate(0 0)"/><circle class="cls-3" cx="1402.27" cy="460.03" r="6.29"/><rect class="cls-3" x="1151.45" y="788.17" width="337.12" height="9.89"/><rect class="cls-3" x="1375.3" y="705.46" width="85.4" height="85.4"/><rect class="cls-4" x="1392.38" y="722.54" width="51.24" height="51.24"/><rect class="cls-3" x="1247.64" y="705.46" width="21.58" height="85.4"/><rect class="cls-4" x="1247.64" y="718.94" width="21.58" height="9.89"/><rect class="cls-4" x="1247.64" y="762.09" width="21.58" height="9.89"/><rect class="cls-3" x="1280.91" y="705.46" width="21.58" height="85.4"/><rect class="cls-4" x="1280.91" y="718.94" width="21.58" height="9.89"/><rect class="cls-4" x="1280.91" y="762.09" width="21.58" height="9.89"/><rect class="cls-3" x="1177.09" y="737.38" width="85.4" height="21.58" transform="translate(7.82 1508.93) rotate(-63.64)"/><rect class="cls-4" x="1225.6" y="715.62" width="9.89" height="21.58" transform="translate(33.3 1506.47) rotate(-63.64)"/><rect class="cls-4" x="1206.46" y="754.29" width="9.89" height="21.58" transform="translate(-12 1510.82) rotate(-63.64)"/><path class="cls-3" d="M1428.79,739.74l-10.86,18.82-10.87,18.82h43.46l-10.86-18.82Z" transform="translate(0 0)"/><path class="cls-3" d="M1409.91,743.34l-10.86,18.81L1388.18,781h43.47l-10.87-18.82Z" transform="translate(0 0)"/><circle class="cls-3" cx="1402.27" cy="731.53" r="6.29"/><ellipse class="cls-3" cx="1083.68" cy="996.32" rx="397.13" ry="28.2"/><path class="cls-5" d="M1393.93,1012.12c-64.75-11.53-135.56-9.61-209.84,0,33.85-28.58,63.07-57.17,29.21-85.75,66,13.63,75.29,12.25,148.76,0C1345,955,1376.89,983.54,1393.93,1012.12Z" transform="translate(0 0)"/><path class="cls-6" d="M1393.93,1012.12c-64.75-11.53-135.56-9.61-209.84,0,33.85-28.58,63.07-57.17,29.21-85.75,66,13.63,75.29,12.25,148.76,0C1345,955,1376.89,983.54,1393.93,1012.12Z" transform="translate(0 0)"/><path class="cls-7" d="M1378.14,999.92a466.25,466.25,0,0,0-55.54-5.74c-20.23-.94-41.25-.74-62.78.4-19.48,1-39.56,2.87-59.94,5.35,28.76-22.82,53.58-45.63,24.82-68.45,56.1,10.88,64,9.78,126.36,0C1336.59,954.29,1363.66,977.11,1378.14,999.92Z" transform="translate(0 0)"/><circle class="cls-8" cx="1357.19" cy="933.85" r="29.31"/><path class="cls-9" d="M1224.14,899.86l20.31,3.38,10.15,29.34-29.33,18-33.85-50.77Z" transform="translate(0 0)"/><circle class="cls-9" cx="1281.68" cy="897.6" r="47.38"/><path class="cls-8" d="M1019.93,725S904.86,737.4,884.55,735.14s-29.34-4.51-29.34-4.51-13.54,18-6.77,26A49,49,0,0,0,862,767.86s12.41-3.39,21.44,0,100.41,18,116.2,4.51S1019.93,725,1019.93,725Z" transform="translate(0 0)"/><path class="cls-8" d="M1027.83,976.58s-75.59-21.44-89.13-116.21v-9s-15,26.24-20.31,31.59c-6.2,6.21-28.2,62.05-27.07,67.7s0,7.9,0,7.9l-32.72-3.39V945s17.49-52.46,18.61-64.87,43.44-98.72,43.44-98.72,15.79-32.72,42.87,0,29.33,55.28,29.33,55.28l35,67.69Z" transform="translate(0 0)"/><path class="cls-8" d="M858.6,727.24l-36.1-12.41s-33.85-24.82-26,0,44,79,54.15,73.34,22.37-19.65,19.65-21.67S849.57,749.81,858.6,727.24Z" transform="translate(0 0)"/><path class="cls-8" d="M863,938.33l-29.14,14.23s-35.25,5.42-15.59,15.59,73.87,21,76.58,11.52,1.64-25.23-1.21-24.82S871.1,957.3,863,938.33Z" transform="translate(0 0)"/><path class="cls-10" d="M1013.16,902.12s-14.67,63.18,10.15,76.71,198.57,15.8,212.1-9,6.77-24.82,6.77-24.82l-36.1-40.62,29.34-2.25s0-9-10.16-10.16-41.74-12.41-68.82-4.51-42.87-15.8-42.87-15.8Z" transform="translate(0 0)"/><path class="cls-11" d="M994,704.68,974.8,809.6l132-15.8L1130.5,699Z" transform="translate(0 0)"/><path class="cls-12" d="M997.93,708.63l-15.79,93.64,120.15-14.1L1125.42,703Z" transform="translate(0 0)"/><path class="cls-13" d="M979.32,810.73l-4.52-1.13-2.25,4.52,36.1,100.41,3.39-1.3,1.12-6.6Z" transform="translate(0 0)"/><path class="cls-14" d="M974.8,808.47l36.1,104.93,136.52-20.31-40.62-99.28Z" transform="translate(0 0)"/><path class="cls-11" d="M992.86,805.09v5.64l100.41-11.28-1.13-5.64Z" transform="translate(0 0)"/><path class="cls-11" d="M995.11,816.37l15.8,44L1113.57,848l-18-41.74Z" transform="translate(0 0)"/><path class="cls-9" d="M1123.73,878.42l-3.39-9s-25.95-45.13-39.49-36.1,28.21,53,28.21,53h13.54Z" transform="translate(0 0)"/><path class="cls-9" d="M1038,885.19l-3.38-13.54s-9-41.74,6.77-39.48,20.31,41.74,20.31,41.74l-1.13,9Z" transform="translate(0 0)"/><path class="cls-10" d="M1065.06,879.55s-29.33-4.51-30.46,2.26S1027.83,990.12,1056,993.5s168.1,18,153.44-16.92-37.23-30.46-37.23-30.46l-95.9,10.15Z" transform="translate(0 0)"/><path class="cls-10" d="M1153.63,892.53l-29.9-20.88L1104,886.89,1128.8,914Z" transform="translate(0 0)"/><path class="cls-15" d="M1073.52,912.83l4.52,42.88,77.84-4.52-67.69-1.12Z" transform="translate(0 0)"/><circle class="cls-8" cx="1305.07" cy="906.21" r="56.41"/><path class="cls-7" d="M1014.86,741.35l69.94-2.44,6.77-25.77-72.2,2.18Z" transform="translate(0 0)"/><path class="cls-3" d="M996.8,756l106.06-3.38,1.12-4.52-106.05,3.74Z" transform="translate(0 0)"/><path class="cls-3" d="M994.55,767.3l106-3.39,1.13-4.51-106.05,3.73Z" transform="translate(0 0)"/><path class="cls-3" d="M993.42,776.32l106.05-3.38,1.13-4.52-106,3.74Z" transform="translate(0 0)"/></svg>