<svg id="Lager_1" data-name="Lager 1" xmlns="http://www.w3.org/2000/svg" viewBox="0 0 2085.12 1275.22"><defs><style>.cls-1{fill:#e7ecef;}.cls-2{fill:#d8dadb;}.cls-3{fill:#e6e6e6;}.cls-4{fill:#ccc;}.cls-5{fill:#de356a;}.cls-6,.cls-7{fill:#540e33;}.cls-6{opacity:0.76;}.cls-15,.cls-6{isolation:isolate;}.cls-8{fill:#2f2e41;}.cls-9{fill:#a0616a;}.cls-10{fill:#575a89;}.cls-11{fill:#3f3d56;}.cls-12{fill:#fff;}.cls-13{fill:#b3b3b3;}.cls-14{fill:#d0cde1;}.cls-15{opacity:0.2;}</style></defs><rect class="cls-1" width="2084.78" height="1275.22"/><path class="cls-2" d="M2084.92,99.54v-.63a4.67,4.67,0,0,1-.16-1.35,5,5,0,0,1,.24-1.33,1.07,1.07,0,0,1,.06-.33h0l.06-.2A5.76,5.76,0,0,1,2085,94a457.71,457.71,0,0,0-272,17.67c-12.74,4.9-25.45,10.45-37.77,16.49s-24.4,12.62-36.14,19.7c-70.48,42.49-130.22,103-173.95,176.35-7.26,12.18-14.12,24.86-20.42,37.59s-12.25,26.12-17.57,39.47-10.26,27.32-14.56,41.2-8.17,28.4-11.4,42.76C1262.33,539.2,1069.34,729,997.22,981a354.89,354.89,0,0,0-90.33-11.6c-173-.07-324.46,125.33-369.43,305.83H2084.78V102.43h.13a7.16,7.16,0,0,1,.1-1.79A5.06,5.06,0,0,1,2084.92,99.54Z"/><rect class="cls-3" x="1657.57" y="822.64" width="337.12" height="9.89"/><rect class="cls-3" x="1685.44" y="739.93" width="85.4" height="85.4"/><rect class="cls-4" x="1702.52" y="757.01" width="51.24" height="51.24"/><rect class="cls-3" x="1876.92" y="739.93" width="21.58" height="85.4"/><rect class="cls-4" x="1876.92" y="753.42" width="21.58" height="9.89"/><rect class="cls-4" x="1876.92" y="796.57" width="21.58" height="9.89"/><rect class="cls-3" x="1843.66" y="739.93" width="21.58" height="85.4"/><rect class="cls-4" x="1843.66" y="753.42" width="21.58" height="9.89"/><rect class="cls-4" x="1843.66" y="796.57" width="21.58" height="9.89"/><rect class="cls-3" x="1915.59" y="739.92" width="21.58" height="85.4" transform="translate(-147.19 936.71) rotate(-26.36)"/><rect class="cls-4" x="1904.81" y="755.93" width="21.58" height="9.89" transform="translate(-138.66 929.66) rotate(-26.36)"/><rect class="cls-4" x="1923.95" y="794.61" width="21.58" height="9.89" transform="translate(-153.84 942.18) rotate(-26.36)"/><path class="cls-3" d="M1717.35,774.24l10.87,18.82,10.86,18.82h-43.46l10.86-18.82Z"/><path class="cls-3" d="M1736.23,777.81l10.86,18.82L1758,815.45h-43.5l10.86-18.82Z"/><circle class="cls-3" cx="1743.87" cy="766" r="6.29"/><rect class="cls-3" x="1657.57" y="686.89" width="337.12" height="9.89"/><rect class="cls-3" x="1881.42" y="604.18" width="85.4" height="85.4"/><rect class="cls-4" x="1898.5" y="621.26" width="51.24" height="51.24"/><rect class="cls-3" x="1753.76" y="604.18" width="21.58" height="85.4"/><rect class="cls-4" x="1753.76" y="617.67" width="21.58" height="9.89"/><rect class="cls-4" x="1753.76" y="660.82" width="21.58" height="9.89"/><rect class="cls-3" x="1787.02" y="604.18" width="21.58" height="85.4"/><rect class="cls-4" x="1787.02" y="617.67" width="21.58" height="9.89"/><rect class="cls-4" x="1787.02" y="660.82" width="21.58" height="9.89"/><rect class="cls-3" x="1683.2" y="636.1" width="85.4" height="21.58" transform="translate(379.95 1906.11) rotate(-63.64)"/><rect class="cls-4" x="1731.71" y="614.33" width="9.89" height="21.58" transform="translate(405.44 1903.65) rotate(-63.64)"/><rect class="cls-4" x="1712.58" y="653.02" width="9.89" height="21.58" transform="translate(360.14 1908.01) rotate(-63.64)"/><path class="cls-3" d="M1934.91,638.47,1924,657.24l-10.86,18.82h43.46l-10.83-18.82Z"/><path class="cls-3" d="M1916,642.06l-10.87,18.82-10.86,18.82h43.46l-10.87-18.82Z"/><circle class="cls-3" cx="1908.39" cy="630.26" r="6.29"/><rect class="cls-3" x="1657.57" y="958.39" width="337.12" height="9.89"/><rect class="cls-3" x="1881.42" y="875.68" width="85.4" height="85.4"/><rect class="cls-4" x="1898.5" y="892.76" width="51.24" height="51.24"/><rect class="cls-3" x="1753.76" y="875.68" width="21.58" height="85.4"/><rect class="cls-4" x="1753.76" y="889.16" width="21.58" height="9.89"/><rect class="cls-4" x="1753.76" y="932.32" width="21.58" height="9.89"/><rect class="cls-3" x="1787.02" y="875.68" width="21.58" height="85.4"/><rect class="cls-4" x="1787.02" y="889.16" width="21.58" height="9.89"/><rect class="cls-4" x="1787.02" y="932.32" width="21.58" height="9.89"/><rect class="cls-3" x="1683.21" y="907.6" width="85.4" height="21.58" transform="translate(136.69 2057.07) rotate(-63.64)"/><rect class="cls-4" x="1731.72" y="885.83" width="9.89" height="21.58" transform="translate(162.18 2054.61) rotate(-63.64)"/><rect class="cls-4" x="1712.57" y="924.51" width="9.89" height="21.58" transform="translate(116.87 2058.95) rotate(-63.64)"/><path class="cls-3" d="M1934.91,910,1924,928.78l-10.86,18.82h43.46l-10.87-18.82Z"/><path class="cls-3" d="M1916,913.56l-10.87,18.82-10.83,18.86h43.46l-10.86-18.82Z"/><circle class="cls-3" cx="1908.39" cy="901.75" r="6.29"/><ellipse class="cls-3" cx="1589.79" cy="1166.54" rx="397.13" ry="28.2"/><path class="cls-5" d="M1900.05,1182.34c-64.76-11.53-135.57-9.61-209.85,0,33.86-28.58,63.08-57.17,29.22-85.75,66,13.63,75.29,12.25,148.75,0C1851.13,1125.17,1883,1153.76,1900.05,1182.34Z"/><path class="cls-6" d="M1900.05,1182.34c-64.76-11.53-135.57-9.61-209.85,0,33.86-28.58,63.08-57.17,29.22-85.75,66,13.63,75.29,12.25,148.75,0C1851.13,1125.17,1883,1153.76,1900.05,1182.34Z"/><path class="cls-7" d="M1884.25,1170.14a468.12,468.12,0,0,0-55.54-5.74c-20.23-.94-41.25-.74-62.78.4-19.48,1-39.55,2.87-59.93,5.35,28.75-22.82,53.58-45.63,24.82-68.45,56.1,10.88,64,9.78,126.36,0C1842.7,1124.52,1869.77,1147.33,1884.25,1170.14Z"/><circle class="cls-8" cx="1863.3" cy="1104.08" r="29.31"/><path class="cls-9" d="M1730.25,1070.08l20.31,3.39,10.15,29.33-29.33,18-33.85-50.77Z"/><circle class="cls-9" cx="1787.79" cy="1067.82" r="47.38"/><path class="cls-8" d="M1526.05,895.24s-115,12.38-135.39,10.12-29.33-4.51-29.33-4.51-13.54,18-6.77,25.95a48.85,48.85,0,0,0,13.54,11.28s12.41-3.38,21.43,0,100.41,18,116.21,4.51S1526.05,895.24,1526.05,895.24Z"/><path class="cls-8" d="M1533.94,1146.8s-75.59-21.44-89.12-116.21v-9s-15,26.24-20.31,31.59c-6.21,6.21-28.21,62.06-27.08,67.7s0,7.9,0,7.9l-32.72-3.39v-10.15s17.49-52.46,18.62-64.87,43.43-98.72,43.43-98.72,15.8-32.72,42.88,0S1499,1006.9,1499,1006.9l35,67.69Z"/><path class="cls-8" d="M1364.71,897.46l-36.1-12.41s-33.84-24.82-25.95,0,44,79,54.16,73.34,22.36-19.64,19.64-21.67S1355.69,920,1364.71,897.46Z"/><path class="cls-8" d="M1369.07,1108.55l-29.14,14.23s-35.24,5.42-15.59,15.59,73.88,21,76.59,11.52,1.63-25.23-1.22-24.82S1377.21,1127.53,1369.07,1108.55Z"/><path class="cls-10" d="M1519.27,1072.34s-14.66,63.18,10.16,76.72,198.56,15.79,212.1-9,6.77-24.82,6.77-24.82l-36.1-40.62,29.33-2.25s0-9-10.15-10.16-41.75-12.41-68.82-4.51-42.88-15.79-42.88-15.79Z"/><path class="cls-11" d="M1500.1,874.9l-19.18,104.92,132-15.8,23.69-94.78Z"/><path class="cls-12" d="M1504.05,878.85l-15.8,93.64,120.16-14.1,23.12-85.15Z"/><path class="cls-13" d="M1485.43,981l-4.51-1.13-2.26,4.52,36.1,100.41,3.4-1.3,1.11-6.6Z"/><path class="cls-14" d="M1480.92,978.7,1517,1083.62l136.51-20.31L1612.9,964Z"/><path class="cls-11" d="M1499,975.31V981l100.41-11.28-1.13-5.64Z"/><path class="cls-11" d="M1501.23,986.59l15.79,44,102.67-12.41-18-41.74Z"/><path class="cls-9" d="M1629.84,1048.64l-3.38-9s-26-45.13-39.49-36.1,28.2,53,28.2,53h13.54Z"/><path class="cls-9" d="M1544.1,1055.41l-3.39-13.54s-9-41.74,6.77-39.48,20.31,41.74,20.31,41.74l-1.13,9Z"/><path class="cls-10" d="M1571.17,1049.77s-29.33-4.51-30.46,2.26-6.77,108.31,21.44,111.69,168.1,18,153.43-16.92-37.23-30.46-37.23-30.46l-95.9,10.15Z"/><path class="cls-10" d="M1659.74,1062.75l-29.9-20.87-19.74,15.23,24.82,27.07Z"/><path class="cls-15" d="M1579.64,1083.06l4.51,42.87,77.85-4.52-67.7-1.12Z"/><circle class="cls-8" cx="1811.18" cy="1076.43" r="56.41"/><path class="cls-7" d="M1521,911.57l70-2.44,6.77-25.77-72.21,2.18Z"/><path class="cls-3" d="M1502.92,926.24l106-3.38,1.13-4.52-106,3.74Z"/><path class="cls-3" d="M1500.66,937.52l106-3.39,1.13-4.51-106,3.73Z"/><path class="cls-3" d="M1499.53,946.54l106.06-3.38,1.12-4.52-106,3.74Z"/></svg>