<svg xmlns="http://www.w3.org/2000/svg" width="144.989" height="213.224" viewBox="0 0 144.989 213.224"><defs><style>.a{fill:#383838;}.b{fill:#fff;}.c{fill:#6e9086;}</style></defs><ellipse class="a" cx="72.494" cy="71.59" rx="72.494" ry="71.59" transform="translate(0 0)"/><ellipse class="b" cx="27.042" cy="25.151" rx="27.042" ry="25.151" transform="translate(77.508 33.37)"/><path class="b" d="M54.833,86.664C40.121,81.732,29.6,68.5,27.216,52.8A49.839,49.839,0,0,0,16.86,83.787c0,24.74,16.521,44.8,36.987,44.8a32.285,32.285,0,0,0,18.411-5.918A61.932,61.932,0,0,1,55.9,89.294C55.491,88.39,55.162,87.568,54.833,86.664Z" transform="translate(-6.175 -9.402)"/><path class="a" d="M152.346,124.992,93.66,102.8l.986,89.262,54.987-58.6a39.074,39.074,0,0,1,2.712-8.466Z" transform="translate(-19.851 -18.306)"/><ellipse class="b" cx="27.699" cy="26.631" rx="27.699" ry="26.631" transform="translate(12.822 33.453)"/><ellipse class="b" cx="25.233" cy="23.507" rx="25.233" ry="23.507" transform="translate(23.918 74.385)"/><ellipse class="b" cx="25.315" cy="23.507" rx="25.315" ry="23.507" transform="translate(72.494 74.385)"/><path class="b" d="M136.558,61.7a40.208,40.208,0,0,1-4.849,12.9l-6.329,8.219a30.806,30.806,0,0,1-13.069,8.466,28.11,28.11,0,0,1-6.329,2.466,41.6,41.6,0,0,1-26.959,10.192c-21.7,0-38.055-16.85-40.439-37.48A45.206,45.206,0,0,1,22.474,58,60,60,0,0,0,17.46,81.918c0,33.37,27.452,60.494,61.234,60.494s61.316-27.042,61.316-60.494a58.439,58.439,0,0,0-3.452-20.22Z" transform="translate(-6.282 -10.328)"/><ellipse class="b" cx="17.589" cy="7.315" rx="17.589" ry="7.315" transform="translate(9.671 75.207) rotate(-79.96)"/><ellipse class="b" cx="7.315" cy="17.589" rx="7.315" ry="17.589" transform="translate(114.985 43.132) rotate(-10.04)"/><ellipse class="c" cx="16.356" cy="15.041" rx="16.356" ry="15.041" transform="translate(24.165 43.48)"/><ellipse class="c" cx="16.356" cy="15.041" rx="16.356" ry="15.041" transform="translate(88.193 43.48)"/><circle class="a" cx="5.014" cy="5.014" r="5.014" transform="translate(99.536 53.508)"/><circle class="b" cx="0.904" cy="0.904" r="0.904" transform="translate(104.55 56.056)"/><circle class="a" cx="5.014" cy="5.014" r="5.014" transform="translate(35.507 52.85)"/><circle class="b" cx="0.904" cy="0.904" r="0.904" transform="translate(38.795 55.234)"/><path class="b" d="M124.385,141.084a36.506,36.506,0,0,1-5.178-.329c-.493,0-1.069.082-1.562.082a38.992,38.992,0,0,1-10.685-1.479l.329,32.548L137.865,138.7a39.806,39.806,0,0,1-13.48,2.384Z" transform="translate(-22.219 -24.698)"/><path class="a" d="M15.863,215.519h9.863a10.545,10.545,0,0,1,6.912,2.384,7.11,7.11,0,0,1,2.893,5.647v20.006a7.11,7.11,0,0,1-2.893,5.655,10.545,10.545,0,0,1-6.912,2.384H15.863a10.735,10.735,0,0,1-6.945-2.359A7.077,7.077,0,0,1,6,243.556V223.55a7.077,7.077,0,0,1,2.926-5.671,10.734,10.734,0,0,1,6.937-2.359Zm0,8.03v20.006A3.592,3.592,0,0,0,17.31,246.4a5.26,5.26,0,0,0,3.485,1.2,5.367,5.367,0,0,0,3.518-1.2,3.617,3.617,0,0,0,1.414-2.844V223.55a3.592,3.592,0,0,0-1.447-2.86,5.392,5.392,0,0,0-3.485-1.175,5.285,5.285,0,0,0-3.46,1.175,3.567,3.567,0,0,0-1.471,2.86Z" transform="translate(-4.241 -38.377)"/><path class="a" d="M53.93,225.29h9.863v24.05h4.932a5.351,5.351,0,0,0,3.518-1.2,3.617,3.617,0,0,0,1.471-2.844V225.29h9.773v24.05h4.932a5.277,5.277,0,0,0,3.46-1.2,3.617,3.617,0,0,0,1.447-2.844V225.29h9.863v14.334q0,5.622-4.932,9.666a18.181,18.181,0,0,1-11.91,4.044H73.714v-1.258a17.186,17.186,0,0,1-6.97,1.258H53.93Z" transform="translate(-12.776 -40.117)"/><path class="a" d="M125.84,251.595V215.52H135.7v36.075Z" transform="translate(-25.581 -38.377)"/><path class="a" d="M159.663,253.334H149.8V225.29h9.863v7.981a9.082,9.082,0,0,1,3.041-5.984,10.565,10.565,0,0,1,6.83-2h4.932v7.981H164.6a5.31,5.31,0,0,0-3.46,1.184,3.592,3.592,0,0,0-1.447,2.86Z" transform="translate(-29.847 -40.117)"/></svg>