<svg xmlns="http://www.w3.org/2000/svg" xmlns:xlink="http://www.w3.org/1999/xlink" width="1923.364" height="1081.001" viewBox="0 0 1923.364 1081.001"><defs><style>.a{fill:#e7ecef;}.b{fill:#d8dadb;}.c{opacity:0.82;fill:url(#a);}</style><linearGradient id="a" x1="0.089" y1="0.062" x2="0.5" y2="1" gradientUnits="objectBoundingBox"><stop offset="0" stop-color="#540e33"/><stop offset="1" stop-color="#6e9086"/></linearGradient></defs><rect class="a" width="1920" height="1081"/><path class="b" d="M3113.293,1021.115H1566a380.618,380.618,0,0,1,51.33-112.989A383.2,383.2,0,0,1,2025.711,748.83a671.213,671.213,0,0,1,504.022-458.677c3.224-13.288,7.059-26.6,11.4-39.573,4.3-12.844,9.195-25.671,14.559-38.125,5.324-12.361,11.234-24.65,17.566-36.525,6.3-11.812,13.168-23.511,20.422-34.773A492.282,492.282,0,0,1,2767.627-22.132c11.749-6.552,23.908-12.686,36.138-18.233,12.324-5.59,25.032-10.724,37.772-15.26,4.144-1.476,8.349-2.91,12.5-4.261h259.258v1081Z" transform="translate(-1189.93 59.886)"/><rect class="c" width="1920" height="1080"/></svg>