<svg id="Layer_1" data-name="Layer 1" xmlns="http://www.w3.org/2000/svg" viewBox="0 0 176.48 211.45"><defs><style>.cls-1{fill:#383838;}.cls-2,.cls-3{fill:#fff;}.cls-3{stroke:#000;stroke-miterlimit:10;}.cls-4{fill:#6e9086;}</style></defs><ellipse class="cls-1" cx="88.24" cy="87.08" rx="88.24" ry="87.08"/><ellipse class="cls-2" cx="127.22" cy="71.22" rx="32.94" ry="30.59"/><path class="cls-3" d="M59.15,94C41.24,88,28.46,71.91,25.54,52.81,17.8,62.6,13,75.86,13,90.48c0,30.1,20.14,54.5,45,54.5a39,39,0,0,0,22.38-7.23,75,75,0,0,1-19.86-40.6C60,96.12,59.59,95.06,59.15,94Z"/><polygon class="cls-1" points="91 211.45 89.8 102.81 164.65 131.57 91 211.45"/><ellipse class="cls-2" cx="49.35" cy="73.06" rx="33.65" ry="32.44"/><ellipse class="cls-2" cx="59.81" cy="119.08" rx="30.75" ry="28.6"/><ellipse class="cls-2" cx="119" cy="119.08" rx="30.75" ry="28.6"/><path class="cls-2" d="M158.51,62.52a49.49,49.49,0,0,1-5.88,15.72l-7.74,10A37.08,37.08,0,0,1,129,98.5a37.52,37.52,0,0,1-7.65,3,51.3,51.3,0,0,1-32.78,12.44c-26.39,0-46.26-20.53-49.17-45.61A54.29,54.29,0,0,1,19.78,58,72.58,72.58,0,0,0,13.7,87.08c0,40.64,33.37,73.57,74.54,73.57s74.55-32.93,74.55-73.57A72.67,72.67,0,0,0,158.51,62.52Z"/><ellipse class="cls-2" cx="24.27" cy="72.02" rx="21.41" ry="8.95" transform="translate(-50.88 83.36) rotate(-79.96)"/><ellipse class="cls-2" cx="152.38" cy="72.02" rx="8.95" ry="21.41" transform="translate(-10.22 27.67) rotate(-10.04)"/><ellipse class="cls-4" cx="49.35" cy="71.22" rx="19.9" ry="18.31"/><ellipse class="cls-4" cx="127.22" cy="71.22" rx="19.9" ry="18.31"/><circle class="cls-1" cx="127.22" cy="71.22" r="6.07"/><circle class="cls-2" cx="128.28" cy="69.34" r="1.06"/><circle class="cls-1" cx="49.35" cy="70.4" r="6.07"/><circle class="cls-2" cx="48.29" cy="68.28" r="1.06"/><path class="cls-2" d="M124.28,141.61a48,48,0,0,1-6.34-.42c-.64,0-1.29.05-1.93.05a48.8,48.8,0,0,1-13-1.76l.44,39.56,37.19-40.35A49.09,49.09,0,0,1,124.28,141.61Z"/></svg>