<svg xmlns="http://www.w3.org/2000/svg" width="101" height="289" viewBox="0 0 101 289"><defs><style>.a{fill:#540e33;}.b{fill:#de356a;stroke:#707070;}.c{fill:#383838;}.d,.e{fill:#fff;}.e{stroke:#000;stroke-miterlimit:10;}.f{fill:#3f5b53;}.g{fill:#e7ecef;}.h{stroke:none;}.i{fill:none;}</style></defs><g transform="translate(-357 -105)"><rect class="a" width="101" height="289" rx="50" transform="translate(357 105)"/><g class="b" transform="translate(357 105)"><circle class="h" cx="50.5" cy="50.5" r="50.5"/><circle class="i" cx="50.5" cy="50.5" r="50"/></g><g transform="translate(-163 -262.449)"><ellipse class="c" cx="27.5" cy="27.138" rx="27.5" ry="27.138" transform="translate(543 389)"/><ellipse class="d" cx="10.266" cy="9.533" rx="10.266" ry="9.533" transform="translate(572.382 401.662)"/><path class="e" d="M27.383,65.647A15.9,15.9,0,0,1,16.908,52.81,18.952,18.952,0,0,0,13,64.55c0,9.381,6.277,16.985,14.024,16.985A12.154,12.154,0,0,0,34,79.281a23.374,23.374,0,0,1-6.189-12.653C27.647,66.308,27.52,65.977,27.383,65.647Z" transform="translate(534.051 352.648)"/><path class="c" d="M90.174,136.668,89.8,102.81l23.327,8.963Z" transform="translate(481.186 318.231)"/><ellipse class="d" cx="10.487" cy="10.11" rx="10.487" ry="10.11" transform="translate(547.893 401.659)"/><ellipse class="d" cx="9.583" cy="8.913" rx="9.583" ry="8.913" transform="translate(552.057 417.198)"/><ellipse class="d" cx="9.583" cy="8.913" rx="9.583" ry="8.913" transform="translate(570.503 417.198)"/><path class="d" d="M58.83,59.409A15.392,15.392,0,0,1,57,64.308l-2.412,3.116a11.556,11.556,0,0,1-4.952,3.2,11.747,11.747,0,0,1-2.384.935,15.981,15.981,0,0,1-10.216,3.877c-8.224,0-14.417-6.4-15.324-14.214A16.9,16.9,0,0,1,15.595,58,22.588,22.588,0,0,0,13.7,67.063a23.234,23.234,0,0,0,46.464,0,22.591,22.591,0,0,0-1.334-7.654Z" transform="translate(533.57 349.076)"/><ellipse class="d" cx="6.672" cy="2.789" rx="6.672" ry="2.789" transform="translate(546.653 417.528) rotate(-79.96)"/><ellipse class="d" cx="2.789" cy="6.672" rx="2.789" ry="6.672" transform="translate(586.58 405.361) rotate(-10.04)"/><path class="f" d="M6.2,0a5.97,5.97,0,0,1,6.2,5.706,5.97,5.97,0,0,1-6.2,5.706A5.97,5.97,0,0,1,0,5.706,5.97,5.97,0,0,1,6.2,0Z" transform="translate(552.178 405.489)"/><ellipse class="f" cx="6.202" cy="5.706" rx="6.202" ry="5.706" transform="translate(576.446 405.489)"/><circle class="c" cx="1.892" cy="1.892" r="1.892" transform="translate(580.756 409.304)"/><circle class="d" cx="0.33" cy="0.33" r="0.33" transform="translate(582.648 410.279)"/><circle class="c" cx="1.892" cy="1.892" r="1.892" transform="translate(556.488 409.048)"/><circle class="d" cx="0.33" cy="0.33" r="0.33" transform="translate(557.719 409.949)"/><path class="d" d="M109.636,139.6a15.234,15.234,0,0,1-1.973-.131c-.2,0-.4.016-.6.016a15.122,15.122,0,0,1-4.051-.549l.137,12.329,11.59-12.575A15.305,15.305,0,0,1,109.636,139.6Z" transform="translate(472.093 293.533)"/></g><path class="g" d="M29.167,24.375a2.777,2.777,0,0,0,2.9-2.625l.015-13.125A2.782,2.782,0,0,0,29.167,6H5.833A2.773,2.773,0,0,0,2.917,8.625V21.75a2.781,2.781,0,0,0,2.917,2.625H0V27H35V24.375ZM18.958,19.742V16.868c-4.054,0-6.723,1.116-8.75,3.57.817-3.5,3.077-7,8.75-7.7v-2.8l5.833,4.9Z" transform="translate(389.864 330.5)"/><path class="g" d="M34,22.386l-7.656-2.97a1.755,1.755,0,0,0-1.914.427l-3.391,3.75A24.273,24.273,0,0,1,8.928,12.629L13.07,9.56a1.392,1.392,0,0,0,.472-1.732L10.261.9a1.7,1.7,0,0,0-1.88-.86L1.271,1.523A1.525,1.525,0,0,0,0,2.97C0,18.841,14.212,31.68,31.719,31.68a1.615,1.615,0,0,0,1.6-1.151l1.641-6.435A1.472,1.472,0,0,0,34,22.386Z" transform="translate(390 226)"/><path class="g" d="M20.429,4.5H2.9A2.923,2.923,0,0,0,0,7.441V25.184a2.923,2.923,0,0,0,2.9,2.941H20.429a2.923,2.923,0,0,0,2.9-2.941V7.441A2.923,2.923,0,0,0,20.429,4.5ZM31.938,6.819l-6.66,4.651v9.684l6.66,4.645A1.947,1.947,0,0,0,35,24.212V8.407A1.948,1.948,0,0,0,31.938,6.819Z" transform="translate(390 281.102)"/></g></svg>